User Type,Username,Date,Text
,technosailor,2011-08-16T22:15Z,"Information about the Video & Audio would be great, like in this one: http://thepiratebay.org/torrent/5867519/Black_Hawk_Down_2001.720p.x264.BRRip.GokU61"
,Trantigne,2011-08-31T14:33Z,"Info from MediaInfo [Sample]:

General

Format                           : Matroska
File size                        : 24.1 MiB
Duration                         : 58s 854ms
Overall bit rate                 : 3 431 Kbps
Encoded date                     : UTC 2011-05-10 17:24:15
Writing application              : mkvmerge v4.6.0 ('Still Crazy After All These Years') built on Mar 10 2011 02:50:32
Writing library                  : libebml v1.2.0 + libmatroska v1.1.0

Video
ID                               : 1
Format                           : AVC
Format/Info                      : Advanced Video Codec
Format profile                   : High@L4.1
Format settings, CABAC           : Yes
Format settings, ReFrames        : 5 frames
Codec ID                         : V_MPEG4/ISO/AVC
Duration                         : 58s 851ms
Bit rate                         : 2 915 Kbps
Width                            : 1 280 pixels
Height                           : 544 pixels
Display aspect ratio             : 2.35:1
Frame rate                       : 23.976 fps
Color space                      : YUV
Chroma subsampling               : 4:2:0
Bit depth                        : 8 bits
Scan type                        : Progressive
Bits/(Pixel*Frame)               : 0.175
Stream size                      : 20.4 MiB (85%)
Language                         : English

Audio
ID                               : 2
Format                           : AC-3
Format/Info                      : Audio Coding 3
Mode extension                   : CM (complete main)
Codec ID                         : A_AC3
Duration                         : 58s 854ms
Bit rate mode                    : Constant
Bit rate                         : 448 Kbps
Channel(s)                       : 6 channels
Channel positions                : Front: L C R, Side: L R, LFE
Sampling rate                    : 48.0 KHz
Bit depth                        : 16 bits
Compression mode                 : Lossy
Video delay                      : 6ms
Stream size                      : 3.14 MiB (13%)
Language                         : English

Text #1
ID                               : 3
Format                           : UTF-8
Codec ID                         : S_TEXT/UTF8
Codec ID/Info                    : UTF-8 Plain Text
Language                         : English

Text #2
ID                               : 4
Format                           : UTF-8
Codec ID                         : S_TEXT/UTF8
Codec ID/Info                    : UTF-8 Plain Text
Language                         : Spanish

Text #3
ID                               : 5
Format                           : UTF-8
Codec ID                         : S_TEXT/UTF8
Codec ID/Info                    : UTF-8 Plain Text
Language                         : French


======================

Thanks for torrent ;)"
,k_akshay007,2012-02-09T22:24Z,"thanks BONE!
A10/10
V10/10
keep up the good work!"
